<?xml version="1.0" encoding="utf-8"?>
<!-- Generator: Adobe Illustrator 16.0.0, SVG Export Plug-In . SVG Version: 6.00 Build 0)  -->
<!DOCTYPE svg PUBLIC "-//W3C//DTD SVG 1.1//EN" "http://www.w3.org/Graphics/SVG/1.1/DTD/svg11.dtd">
<svg version="1.1" id="Ebene_1" xmlns="http://www.w3.org/2000/svg" xmlns:xlink="http://www.w3.org/1999/xlink" x="0px" y="0px"
	 width="100.028px" height="100.131px" viewBox="0 0 100.028 100.131" enable-background="new 0 0 100.028 100.131"
	 xml:space="preserve">
<g>
	<path fill="#191919" d="M99.827,29.423c-1.886,0-3.716,0-5.771,0c0-0.516,0-0.997,0-1.479c0-3.304,0.006-6.607-0.002-9.911
		c-0.019-7.004-5.046-12.029-12.069-12.057c-3.304-0.013-6.608-0.002-9.912-0.002c-0.447,0-0.895,0-1.423,0c0-2.001,0-3.863,0-5.805
		c0.302-0.041,0.608-0.119,0.913-0.117c4.128,0.03,8.281-0.208,12.378,0.166c9.086,0.829,15.578,7.746,15.996,16.842
		c0.179,3.892,0.04,7.799,0.035,11.7C99.973,28.973,99.881,29.186,99.827,29.423z"/>
	<path fill="#191919" d="M29.376,0.074c0,2.027,0,3.881,0,5.905c-1.77,0-3.453,0.001-5.136,0c-2.11,0-4.219-0.009-6.329-0.002
		C11.067,6,5.942,11.126,5.908,18c-0.019,3.756-0.003,7.512-0.003,11.364c-1.942,0-3.8,0-5.748,0
		c-0.033-0.271-0.104-0.575-0.101-0.877c0.05-4.399-0.28-8.846,0.252-13.187c1.06-8.655,7.789-14.7,16.554-15.187
		C20.971-0.115,25.103,0.074,29.376,0.074z"/>
	<path fill="#191919" d="M70.633,99.979c0-2.043,0-3.866,0-5.852c2.568,0,5.076,0.057,7.58-0.017
		c2.372-0.069,4.815,0.042,7.097-0.486c5.212-1.207,8.665-5.776,8.733-11.127c0.05-3.893,0.009-7.787,0.009-11.807
		c1.98,0,3.866,0,5.933,0c0,3.144,0.055,6.249-0.02,9.35c-0.05,2.055-0.06,4.151-0.478,6.147
		c-1.681,8.027-8.787,13.735-16.973,13.787C78.582,99.999,74.649,99.979,70.633,99.979z"/>
	<path fill="#191919" d="M0.084,70.63c1.959,0,3.777,0,5.744,0c0.026,0.575,0.067,1.105,0.073,1.635
		c0.039,3.763-0.188,7.549,0.162,11.282c0.586,6.244,5.566,10.525,11.851,10.574c3.305,0.025,6.611,0.005,9.916,0.005
		c0.491,0,0.983,0,1.551,0c0,2.018,0,3.872,0,6.005c-5.118-0.161-10.207,0.113-15.163-0.578C6.546,98.484,0.55,91.521,0.126,83.721
		C-0.107,79.421,0.084,75.098,0.084,70.63z"/>
</g>
<g>
	<path fill="#0EAD16" d="M50.28,55.249c7.219,0,14.438,0,21.658,0c2.744,0,3.657,1.031,3.393,3.788
		c-0.748,7.81-4.934,13.445-11.408,17.426c-11.365,6.987-25.586,4.501-34.025-5.817c-2.855-3.49-4.523-7.488-4.776-12.033
		c-0.129-2.321,0.81-3.353,3.148-3.355c7.337-0.007,14.674-0.003,22.01-0.003C50.28,55.252,50.28,55.25,50.28,55.249z"/>
	<path fill="#0EAD16" d="M34.524,30.168c2.778-0.011,5.002,2.171,5.049,4.954c0.047,2.734-2.204,5.02-4.963,5.039
		c-2.847,0.02-5.108-2.205-5.094-5.012C29.53,32.369,31.732,30.179,34.524,30.168z"/>
	<path fill="#0EAD16" d="M65.992,40.165c-2.776,0.021-5.023-2.16-5.08-4.93c-0.056-2.735,2.177-5.028,4.938-5.07
		c2.837-0.043,5.126,2.183,5.128,4.986C70.979,37.92,68.768,40.144,65.992,40.165z"/>
</g>
</svg>
